<svg width="227" height="105" viewBox="0 0 227 105" fill="none" xmlns="http://www.w3.org/2000/svg">
<circle cx="5" cy="5" r="5" fill="#EBC20C" fill-opacity="0.13"/>
<circle cx="29" cy="5" r="5" fill="#EBC20C" fill-opacity="0.13"/>
<circle cx="53" cy="5" r="5" fill="#EBC20C" fill-opacity="0.13"/>
<circle cx="77" cy="5" r="5" fill="#EBC20C" fill-opacity="0.13"/>
<circle cx="101" cy="5" r="5" fill="#EBC20C" fill-opacity="0.13"/>
<circle cx="5" cy="29" r="5" fill="#EBC20C" fill-opacity="0.13"/>
<circle cx="29" cy="29" r="5" fill="#EBC20C" fill-opacity="0.13"/>
<circle cx="53" cy="29" r="5" fill="#EBC20C" fill-opacity="0.13"/>
<circle cx="77" cy="29" r="5" fill="#EBC20C" fill-opacity="0.13"/>
<circle cx="101" cy="29" r="5" fill="#EBC20C" fill-opacity="0.13"/>
<circle cx="5" cy="52" r="5" fill="#EBC20C" fill-opacity="0.13"/>
<circle cx="29" cy="52" r="5" fill="#EBC20C" fill-opacity="0.13"/>
<circle cx="53" cy="52" r="5" fill="#EBC20C" fill-opacity="0.13"/>
<circle cx="77" cy="52" r="5" fill="#EBC20C" fill-opacity="0.13"/>
<circle cx="101" cy="52" r="5" fill="#EBC20C" fill-opacity="0.13"/>
<circle cx="5" cy="76" r="5" fill="#EBC20C" fill-opacity="0.13"/>
<circle cx="29" cy="76" r="5" fill="#EBC20C" fill-opacity="0.13"/>
<circle cx="53" cy="76" r="5" fill="#EBC20C" fill-opacity="0.13"/>
<circle cx="77" cy="76" r="5" fill="#EBC20C" fill-opacity="0.13"/>
<circle cx="101" cy="76" r="5" fill="#EBC20C" fill-opacity="0.13"/>
<circle cx="5" cy="100" r="5" fill="#EBC20C" fill-opacity="0.13"/>
<circle cx="29" cy="100" r="5" fill="#EBC20C" fill-opacity="0.13"/>
<circle cx="53" cy="100" r="5" fill="#EBC20C" fill-opacity="0.13"/>
<circle cx="77" cy="100" r="5" fill="#EBC20C" fill-opacity="0.13"/>
<circle cx="101" cy="100" r="5" fill="#EBC20C" fill-opacity="0.13"/>
<circle cx="126" cy="5" r="5" fill="#EBC20C" fill-opacity="0.13"/>
<circle cx="150" cy="5" r="5" fill="#EBC20C" fill-opacity="0.13"/>
<circle cx="174" cy="5" r="5" fill="#EBC20C" fill-opacity="0.13"/>
<circle cx="198" cy="5" r="5" fill="#EBC20C" fill-opacity="0.13"/>
<circle cx="222" cy="5" r="5" fill="#EBC20C" fill-opacity="0.13"/>
<circle cx="126" cy="29" r="5" fill="#EBC20C" fill-opacity="0.13"/>
<circle cx="150" cy="29" r="5" fill="#EBC20C" fill-opacity="0.13"/>
<circle cx="174" cy="29" r="5" fill="#EBC20C" fill-opacity="0.13"/>
<circle cx="198" cy="29" r="5" fill="#EBC20C" fill-opacity="0.13"/>
<circle cx="222" cy="29" r="5" fill="#EBC20C" fill-opacity="0.13"/>
<circle cx="126" cy="52" r="5" fill="#EBC20C" fill-opacity="0.13"/>
<circle cx="150" cy="52" r="5" fill="#EBC20C" fill-opacity="0.13"/>
<circle cx="174" cy="52" r="5" fill="#EBC20C" fill-opacity="0.13"/>
<circle cx="198" cy="52" r="5" fill="#EBC20C" fill-opacity="0.13"/>
<circle cx="222" cy="52" r="5" fill="#EBC20C" fill-opacity="0.13"/>
<circle cx="126" cy="76" r="5" fill="#EBC20C" fill-opacity="0.13"/>
<circle cx="150" cy="76" r="5" fill="#EBC20C" fill-opacity="0.13"/>
<circle cx="174" cy="76" r="5" fill="#EBC20C" fill-opacity="0.13"/>
<circle cx="198" cy="76" r="5" fill="#EBC20C" fill-opacity="0.13"/>
<circle cx="222" cy="76" r="5" fill="#EBC20C" fill-opacity="0.13"/>
<circle cx="126" cy="100" r="5" fill="#EBC20C" fill-opacity="0.13"/>
<circle cx="150" cy="100" r="5" fill="#EBC20C" fill-opacity="0.13"/>
<circle cx="174" cy="100" r="5" fill="#EBC20C" fill-opacity="0.13"/>
<circle cx="198" cy="100" r="5" fill="#EBC20C" fill-opacity="0.13"/>
<circle cx="222" cy="100" r="5" fill="#EBC20C" fill-opacity="0.13"/>
</svg>
