<?xml version="1.0" encoding="utf-8"?>
<!-- Generator: Adobe Illustrator 23.0.4, SVG Export Plug-In . SVG Version: 6.00 Build 0)  -->
<svg version="1.1" id="Layer_1" xmlns="http://www.w3.org/2000/svg" xmlns:xlink="http://www.w3.org/1999/xlink" x="0px" y="0px"
	 viewBox="0 0 32 32" style="enable-background:new 0 0 32 32;" xml:space="preserve">
<style type="text/css">
	.st0{fill:#008AD0;}
	.st1{fill:#333333;}
</style>
<g>
	<path class="st1" d="M11.5,22C5.71,22,1,17.29,1,11.5S5.71,1,11.5,1C17.29,1,22,5.71,22,11.5S17.29,22,11.5,22z M11.5,3
		C6.813,3,3,6.813,3,11.5S6.813,20,11.5,20s8.5-3.813,8.5-8.5S16.187,3,11.5,3z"/>
</g>
<g>
	<path class="st0" d="M6,12.5c-0.552,0-1-0.447-1-1C5,7.916,7.916,5,11.5,5c0.552,0,1,0.447,1,1s-0.448,1-1,1
		C9.019,7,7,9.019,7,11.5C7,12.053,6.552,12.5,6,12.5z"/>
</g>
<g>
	<path class="st1" d="M28,31.17c-0.769,0-1.536-0.292-2.121-0.877l-9.388-9.388c-0.391-0.391-0.391-1.023,0-1.414
		s1.023-0.391,1.414,0l9.388,9.388c0.391,0.391,1.023,0.391,1.414,0l0.172-0.172c0.39-0.39,0.39-1.024,0-1.414l-9.388-9.388
		c-0.391-0.391-0.391-1.023,0-1.414s1.023-0.391,1.414,0l9.388,9.388c1.17,1.17,1.17,3.072,0,4.242l-0.172,0.172
		C29.536,30.878,28.769,31.17,28,31.17z"/>
</g>
</svg>
